<?xml version="1.0" encoding="utf-8"?>
<!-- Generator: Adobe Illustrator 16.0.0, SVG Export Plug-In . SVG Version: 6.00 Build 0)  -->
<!DOCTYPE svg PUBLIC "-//W3C//DTD SVG 1.1//EN" "http://www.w3.org/Graphics/SVG/1.1/DTD/svg11.dtd">
<svg version="1.1" id="Layer_1" xmlns="http://www.w3.org/2000/svg" xmlns:xlink="http://www.w3.org/1999/xlink" x="0px" y="0px"
	 width="36.053px" height="36.055px" viewBox="0 0 36.053 36.055" enable-background="new 0 0 36.053 36.055" xml:space="preserve">
<g>
	<path fill="#1D9BD7" d="M18.028,3.251c4.813,0,5.383,0.02,7.283,0.104c1.758,0.082,2.712,0.371,3.348,0.618
		c0.841,0.328,1.443,0.722,2.073,1.354c0.628,0.63,1.021,1.23,1.352,2.069c0.246,0.634,0.538,1.59,0.616,3.349
		c0.09,1.901,0.105,2.469,0.105,7.282c0,4.815-0.016,5.385-0.105,7.286c-0.078,1.757-0.37,2.713-0.616,3.349
		c-0.331,0.841-0.724,1.441-1.352,2.073c-0.63,0.626-1.232,1.02-2.073,1.35c-0.636,0.242-1.59,0.536-3.348,0.616
		c-1.9,0.088-2.47,0.105-7.283,0.105c-4.816,0-5.383-0.018-7.286-0.105c-1.757-0.08-2.709-0.374-3.345-0.616
		c-0.841-0.33-1.442-0.724-2.071-1.35c-0.63-0.632-1.023-1.232-1.348-2.073c-0.25-0.636-0.543-1.592-0.622-3.349
		c-0.088-1.901-0.107-2.471-0.107-7.286c0-4.813,0.019-5.381,0.107-7.282c0.078-1.759,0.371-2.715,0.622-3.349
		c0.325-0.839,0.718-1.439,1.348-2.069c0.629-0.632,1.23-1.025,2.071-1.354c0.636-0.247,1.588-0.536,3.345-0.618
		C12.646,3.271,13.212,3.251,18.028,3.251 M18.028,0c-4.895,0-5.51,0.023-7.431,0.111c-1.917,0.09-3.231,0.392-4.375,0.837
		c-1.186,0.46-2.192,1.08-3.194,2.078C2.024,4.029,1.408,5.034,0.95,6.22C0.5,7.368,0.199,8.675,0.109,10.598
		C0.023,12.521,0,13.135,0,18.026c0,4.896,0.023,5.512,0.109,7.435C0.199,27.38,0.5,28.69,0.95,29.835
		c0.458,1.186,1.074,2.19,2.077,3.195c1.002,1,2.009,1.616,3.194,2.08c1.145,0.443,2.459,0.747,4.375,0.833
		c1.921,0.092,2.537,0.111,7.431,0.111c4.894,0,5.51-0.02,7.431-0.111c1.921-0.086,3.229-0.39,4.378-0.833
		c1.183-0.464,2.19-1.08,3.193-2.08c1.002-1.005,1.614-2.01,2.077-3.195c0.446-1.145,0.75-2.455,0.837-4.374
		c0.089-1.923,0.108-2.539,0.108-7.435c0-4.892-0.02-5.506-0.108-7.429c-0.087-1.923-0.391-3.229-0.837-4.378
		c-0.463-1.186-1.075-2.19-2.077-3.193c-1.003-0.998-2.011-1.618-3.193-2.078c-1.148-0.445-2.457-0.747-4.378-0.837
		C23.538,0.023,22.922,0,18.028,0L18.028,0z"/>
	<path fill="#1D9BD7" d="M18.028,8.774c-5.113,0-9.256,4.139-9.256,9.252c0,5.115,4.143,9.258,9.256,9.258
		c5.112,0,9.258-4.143,9.258-9.258C27.286,12.913,23.141,8.774,18.028,8.774z M18.028,24.037c-3.321,0-6.009-2.691-6.009-6.011
		c0-3.315,2.688-6.009,6.009-6.009c3.316,0,6.009,2.693,6.009,6.009C24.037,21.346,21.345,24.037,18.028,24.037z"/>
	<path fill="#1D9BD7" d="M29.813,8.405c0,1.194-0.969,2.165-2.164,2.165c-1.193,0-2.161-0.971-2.161-2.165
		c0-1.195,0.968-2.16,2.161-2.16C28.845,6.245,29.813,7.21,29.813,8.405z"/>
</g>
</svg>
