<?xml version="1.0" encoding="utf-8"?>
<!-- Generator: Adobe Illustrator 16.0.0, SVG Export Plug-In . SVG Version: 6.00 Build 0)  -->
<!DOCTYPE svg PUBLIC "-//W3C//DTD SVG 1.1//EN" "http://www.w3.org/Graphics/SVG/1.1/DTD/svg11.dtd">
<svg version="1.1" id="Layer_1" xmlns="http://www.w3.org/2000/svg" xmlns:xlink="http://www.w3.org/1999/xlink" x="0px" y="0px"
	 width="178.039px" height="245.465px" viewBox="0 0 178.039 245.465" enable-background="new 0 0 178.039 245.465"
	 xml:space="preserve">
<g>
	<path fill="#FFFFFF" d="M160.785,169.299c-7.975,15.189-18.604,28.193-29.23,38.787c-21.242,21.184-42.533,32.84-42.533,32.84
		s-21.291-11.656-42.537-32.84c-10.623-10.594-21.252-23.598-29.229-38.787c-7.975-15.186-13.297-32.564-13.297-51.871
		c0-10.371,1.977-113.469,1.977-113.469h166.172c0,0,1.977,103.098,1.977,113.469C174.084,136.734,168.762,154.113,160.785,169.299z
		"/>
	<path fill="#09181F" d="M176.063,0H1.98c0,0-1.977,106.131-1.98,116.932c0,20.115,5.344,38.217,13.648,54.037
		c8.309,15.82,19.596,29.367,30.664,40.402c22.133,22.068,44.709,34.094,44.709,34.094s22.574-11.984,44.707-34.049
		c11.068-11.039,22.355-24.627,30.664-40.447s13.646-33.922,13.646-54.037C178.039,106.131,176.063,0,176.063,0z M160.785,169.299
		c-7.975,15.189-18.604,28.193-29.23,38.787c-21.242,21.184-42.533,32.84-42.533,32.84s-21.291-11.656-42.537-32.84
		c-10.623-10.594-21.252-23.598-29.229-38.787c-7.975-15.186-13.297-32.564-13.297-51.871c0-10.371,1.977-113.469,1.977-113.469
		h166.172c0,0,1.977,103.098,1.977,113.469C174.084,136.734,168.762,154.113,160.785,169.299z"/>
	<path fill="#09181F" d="M164.23,11.873H13.814c0,0-2.436,96.416-2.439,105.879c0,17.627,4.861,33.49,12.141,47.35
		c1.82,3.465,3.789,6.803,5.873,10.014l3.252-118.734h18.795l-0.986,48.049c-3.775,6.533-5.941,14.107-5.941,22.18
		c0,7.426,1.832,14.428,5.063,20.59l-1.061,51.604c0.559,0.574,1.125,1.141,1.684,1.703c8.26,8.236,16.494,14.875,23.223,19.783
		l1.412-56.219c-15.102-5.744-25.865-20.367-25.865-37.461c0-17.799,11.668-32.924,27.76-38.123l0.43-17.156h23.738l0.43,17.156
		c16.09,5.203,27.756,20.324,27.756,38.123c0,17.094-10.758,31.715-25.861,37.461l1.412,56.219
		c6.725-4.908,14.961-11.547,23.219-19.783c0.564-0.563,1.127-1.129,1.691-1.703l-1.064-51.6c3.229-6.164,5.059-13.168,5.059-20.594
		c0-8.072-2.164-15.645-5.936-22.18l-0.99-48.049h18.797l3.254,118.734c2.082-3.211,4.053-6.549,5.869-10.014
		c7.283-13.859,12.145-29.723,12.145-47.35C166.666,108.289,164.23,11.873,164.23,11.873z"/>
	<polygon fill-rule="evenodd" clip-rule="evenodd" fill="#1D99D6" points="89.021,207.879 84.076,220.279 89.021,232.68 
		93.969,220.279 	"/>
	<polygon fill-rule="evenodd" clip-rule="evenodd" fill="#1D99D6" points="82.096,190.471 77.152,202.869 82.096,215.271 
		87.043,202.869 	"/>
	<polygon fill-rule="evenodd" clip-rule="evenodd" fill="#1D99D6" points="95.941,190.471 91.002,202.869 95.941,215.271 
		100.891,202.869 	"/>
	<path fill="#09181F" d="M89.021,89.816c-20.291,0-36.793,16.504-36.793,36.793s16.502,36.797,36.793,36.797
		c20.287,0,36.793-16.508,36.793-36.797S109.309,89.816,89.021,89.816z M89.021,161.229c-19.09,0-34.619-15.531-34.619-34.619
		S69.932,91.99,89.021,91.99c19.086,0,34.621,15.531,34.621,34.619S108.107,161.229,89.021,161.229z"/>
	<g>
		<polygon fill="#09181F" points="104.539,122.994 105.717,129.398 106.055,127.111 105.594,125.766 106.871,122.102 		"/>
		<polygon fill="#09181F" points="99.52,126.357 101.938,125.244 102.467,122.92 98.436,121.268 95.193,122.336 93.758,124.072 
			94.771,125.488 96.113,124.65 98.648,124.953 		"/>
		<polygon fill="#09181F" points="89.361,127.965 88.182,131.406 94.279,130.732 96.541,131.406 96.92,129.91 94.316,129.209 		"/>
		<polygon fill="#09181F" points="111.135,110.92 110.318,109.287 109.85,110.313 109.301,111.838 107.49,113.092 107.182,115.875 
			108.137,116.832 108.713,116.666 108.383,120.391 110.051,117.982 111.686,113.58 		"/>
		<path fill="#09181F" d="M83.297,104.01l-2.314-2.566l-2.293-0.541l-2.379,1.373l-1.619,3.838l0.422,4.564l2.145,3.115l1.219,6.777
			l4.383,1.951l5.758-0.584l2.471-4.227l5.352-0.24l1.924-2.75l0.391,5.25l2.492-3.006l3.387-1.203l1.15-0.807l0.549-1.645
			l-3.172-2.221l0.391-1.607l1.512,1.113l0.463-2.717l0.959,0.018l-0.725,3.094l0.914,0.859l1.715-1.119l-0.566-2.547l-0.227-1.193
			l-3.064-0.672l-1.311-0.697l-5.344-0.611l-4.059,0.434l-1.283-1.555l-4.299-0.279L83.297,104.01z M92.23,107.201l-1.373,0.348
			l-1.938-0.709l-2.26-0.807l0.697-0.262l4.357-0.256L92.23,107.201z"/>
		<polygon fill="#09181F" points="61.99,131.008 69.398,123.293 75.414,120.006 75.414,115.945 72.34,111.689 65.84,114.549 
			65.781,114.625 61.586,118.457 57.791,119.129 56.957,125.338 59.191,127.086 57.699,133.604 		"/>
		<polygon fill="#09181F" points="74.959,100.049 77.85,98.689 82.287,99.285 83.869,101.6 89.416,101.6 85.672,98.465 
			79.422,97.457 75.807,97.359 72.236,99.283 66.207,104.064 63.039,107.787 73.145,103.002 		"/>
		<polygon fill="#09181F" points="72.861,105.252 61.59,109.934 61.602,112.68 58.668,116.191 72.316,108.93 		"/>
		<polygon fill="#09181F" points="85.234,130.08 87.373,127.273 83.471,126.1 81.539,125.396 77.328,131.109 73.131,141.336 
			74.135,143.318 70.854,146.895 68.832,151.541 73.314,154.57 75.082,153.633 77.838,156.695 79.713,150.648 81.357,137.926 
			82.221,134.055 		"/>
		<polygon fill="#09181F" points="79.66,124.33 75.967,122.205 71.881,126.494 63.02,134.908 62.104,139.504 60.566,141.426 
			65.449,148.375 75.463,127.432 		"/>
		<polygon fill="#09181F" points="91.182,149.303 90.316,144.994 83.299,142.68 81.85,157.906 86.551,158.031 91.346,158.623 
			99.531,156.928 97.037,150.256 		"/>
		<path fill="#09181F" d="M107.346,141.963l-0.021-0.039l-1.793-2.617l0.234-0.633l-0.061-1.377l-0.219-1.541l-0.961-2.895
			l0.822-2.289l-4.201,0.139l1.889,2.26l-1.66,0.268l-1.801,1.799l-1.779-0.582L96.193,134l-0.219,3.121l-1.289-0.127l-0.93-2.967
			l-0.666,2.461l-1.869-2.42l-5.143-0.844l-1.973,3.605l-0.432,2.68l6.094,2.779l5.154,3.215l7.652,4.73l5.85-1.594l0.715-1.885
			l-1.334-2.482L107.346,141.963z M103.01,136.611l-3.484,1.057l-0.047-0.273l1.682-1.783l2.338-0.254L103.01,136.611z"/>
	</g>
	<polygon fill="#FFFFFF" points="78.111,104.287 80.641,104.9 80.166,107.961 	"/>
	<g>
		<path fill="#FFFFFF" d="M78.756,58.047l-1.604,1.098V57.57l1.604-1.102h1.6v10.406h-1.6V58.047z"/>
		<path fill="#FFFFFF" d="M85.258,62.506l-0.029-0.033c-0.051,0.041-0.137,0.076-0.246,0.098c-0.107,0.023-0.252,0.035-0.432,0.035
			c-0.281,0-0.545-0.061-0.785-0.189c-0.242-0.127-0.432-0.287-0.564-0.482c-0.072-0.096-0.131-0.197-0.174-0.314
			c-0.041-0.109-0.076-0.252-0.104-0.43c-0.025-0.176-0.041-0.395-0.053-0.664c-0.012-0.268-0.014-0.605-0.014-1.018
			c0-0.336,0.002-0.621,0.014-0.84c0.012-0.221,0.027-0.402,0.053-0.553c0.027-0.15,0.066-0.279,0.111-0.389
			c0.049-0.109,0.107-0.217,0.18-0.336c0.211-0.32,0.492-0.57,0.84-0.744c0.354-0.178,0.748-0.266,1.189-0.266
			c0.439,0,0.83,0.094,1.178,0.273c0.346,0.182,0.623,0.424,0.834,0.736c0.074,0.119,0.135,0.227,0.188,0.336
			c0.051,0.109,0.094,0.238,0.119,0.389c0.023,0.15,0.041,0.332,0.055,0.553c0.01,0.219,0.012,0.504,0.012,0.84
			c0,0.324-0.002,0.588-0.012,0.797c-0.014,0.211-0.031,0.389-0.055,0.543c-0.025,0.15-0.061,0.285-0.098,0.41
			c-0.035,0.119-0.078,0.25-0.133,0.387l-2.104,5.23h-1.793L85.258,62.506z M84.459,60.545c0,0.229,0.078,0.404,0.234,0.545
			c0.156,0.135,0.34,0.201,0.551,0.201c0.209,0,0.395-0.066,0.551-0.201c0.156-0.141,0.234-0.316,0.234-0.545v-1.924
			c0-0.225-0.078-0.41-0.234-0.543c-0.156-0.137-0.342-0.205-0.551-0.205c-0.211,0-0.395,0.068-0.551,0.205
			c-0.156,0.133-0.234,0.318-0.234,0.543V60.545z"/>
		<path fill="#FFFFFF" d="M89.484,58.621c0-0.352,0.066-0.664,0.197-0.938s0.307-0.508,0.523-0.703
			c0.223-0.193,0.477-0.344,0.764-0.445c0.287-0.098,0.59-0.154,0.904-0.154s0.613,0.057,0.904,0.154
			c0.285,0.102,0.541,0.252,0.76,0.445c0.221,0.195,0.396,0.43,0.527,0.703s0.195,0.586,0.195,0.938v6.104
			c0,0.354-0.064,0.664-0.195,0.938c-0.131,0.271-0.307,0.506-0.527,0.701c-0.219,0.189-0.475,0.342-0.76,0.443
			c-0.291,0.102-0.59,0.154-0.904,0.154s-0.617-0.053-0.904-0.154s-0.541-0.254-0.764-0.443c-0.217-0.195-0.393-0.43-0.523-0.701
			c-0.131-0.273-0.197-0.584-0.197-0.938V58.621z M91.088,64.725c0,0.217,0.07,0.391,0.217,0.535c0.15,0.139,0.34,0.213,0.568,0.213
			s0.418-0.074,0.566-0.213c0.145-0.145,0.219-0.318,0.219-0.535v-6.104c0-0.215-0.074-0.396-0.219-0.535
			c-0.148-0.141-0.338-0.213-0.566-0.213s-0.418,0.072-0.568,0.213c-0.146,0.139-0.217,0.32-0.217,0.535V64.725z"/>
		<path fill="#FFFFFF" d="M98.016,60.854c0.484,0,0.816-0.053,0.996-0.16c0.186-0.107,0.273-0.354,0.273-0.744v-1.344
			c0-0.215-0.064-0.395-0.211-0.527c-0.139-0.137-0.334-0.205-0.57-0.205c-0.283,0-0.488,0.084-0.605,0.25
			c-0.121,0.166-0.182,0.324-0.182,0.482v0.848h-1.604v-0.861c0-0.303,0.066-0.592,0.188-0.865c0.127-0.273,0.301-0.506,0.521-0.701
			c0.217-0.197,0.479-0.352,0.768-0.467c0.295-0.117,0.607-0.178,0.943-0.178c0.443,0,0.807,0.082,1.092,0.244
			c0.289,0.158,0.504,0.322,0.654,0.492c0.102,0.111,0.193,0.232,0.275,0.355c0.076,0.119,0.139,0.262,0.188,0.424
			c0.047,0.16,0.08,0.354,0.107,0.582c0.029,0.229,0.041,0.508,0.041,0.842c0,0.361-0.01,0.652-0.025,0.879
			c-0.016,0.221-0.057,0.408-0.123,0.561c-0.068,0.15-0.168,0.279-0.301,0.387s-0.313,0.227-0.543,0.346
			c0.254,0.152,0.445,0.287,0.574,0.414c0.133,0.129,0.23,0.277,0.291,0.447c0.066,0.168,0.1,0.371,0.113,0.613
			c0.008,0.238,0.014,0.545,0.014,0.912c0,0.342-0.01,0.623-0.025,0.846c-0.016,0.227-0.035,0.412-0.07,0.564
			c-0.031,0.15-0.074,0.281-0.125,0.389c-0.051,0.105-0.121,0.219-0.203,0.334c-0.199,0.271-0.455,0.502-0.77,0.678
			c-0.314,0.184-0.719,0.271-1.211,0.271c-0.25,0-0.518-0.039-0.799-0.115c-0.285-0.078-0.539-0.205-0.77-0.381
			c-0.234-0.176-0.422-0.404-0.576-0.686c-0.152-0.281-0.229-0.629-0.229-1.039v-0.848h1.604v0.775c0,0.234,0.072,0.428,0.211,0.576
			c0.139,0.152,0.334,0.229,0.576,0.229c0.236,0,0.432-0.076,0.57-0.229c0.146-0.148,0.211-0.352,0.211-0.604v-1.492
			c0-0.207-0.018-0.371-0.053-0.498s-0.104-0.225-0.197-0.297c-0.094-0.074-0.219-0.121-0.385-0.148
			c-0.162-0.021-0.373-0.035-0.635-0.035V60.854z"/>
	</g>
	<g>
		<path fill="#FFFFFF" d="M21.551,19.785h4.127v12.291h5.1V19.785h4.133v28.686h-4.133V35.697h-5.1v12.773h-4.127V19.785z"/>
		<path fill="#FFFFFF" d="M41.021,19.785h12.307v3.867H45.15v8.424h7.127v3.867H45.15v8.418h8.178v4.109H41.021V19.785z"/>
		<path fill="#FFFFFF" d="M58.508,19.785h6.645c4.855,0,7.281,2.809,7.281,8.42c0,1.664-0.26,3.098-0.787,4.289
			c-0.527,1.199-1.453,2.158-2.771,2.883l4.453,13.094h-4.373l-3.848-12.246h-2.471v12.246h-4.129V19.785z M62.637,32.598h2.35
			c0.727,0,1.309-0.104,1.738-0.301c0.436-0.201,0.766-0.492,0.994-0.865c0.23-0.377,0.387-0.842,0.465-1.396
			c0.082-0.547,0.123-1.184,0.123-1.912c0-0.725-0.041-1.359-0.123-1.912c-0.078-0.547-0.248-1.018-0.508-1.41
			c-0.254-0.389-0.611-0.678-1.072-0.861c-0.457-0.191-1.064-0.287-1.818-0.287h-2.148V32.598z"/>
		<path fill="#FFFFFF" d="M82.506,19.785h3.439l6.438,28.686h-4.131l-1.211-6.164h-5.629l-1.215,6.164H76.07L82.506,19.785z
			 M84.248,28.047h-0.084l-2.021,10.396h4.129L84.248,28.047z"/>
		<path fill="#FFFFFF" d="M109.004,42.064c0,0.889-0.168,1.73-0.508,2.539c-0.336,0.805-0.801,1.508-1.395,2.115
			c-0.594,0.605-1.287,1.088-2.088,1.449c-0.795,0.361-1.652,0.543-2.568,0.543c-0.781,0-1.58-0.104-2.389-0.322
			c-0.813-0.211-1.539-0.582-2.188-1.107c-0.646-0.523-1.184-1.217-1.6-2.074c-0.418-0.857-0.627-1.945-0.627-3.26V26.152
			c0-0.941,0.162-1.814,0.486-2.617c0.322-0.807,0.781-1.508,1.373-2.1c0.596-0.588,1.305-1.051,2.129-1.385
			c0.824-0.338,1.732-0.508,2.732-0.508c0.943,0,1.82,0.17,2.631,0.508c0.811,0.334,1.514,0.803,2.107,1.406s1.059,1.33,1.395,2.178
			c0.34,0.842,0.508,1.764,0.508,2.754v1.615h-4.129v-1.369c0-0.805-0.232-1.504-0.691-2.094c-0.459-0.592-1.078-0.889-1.861-0.889
			c-1.025,0-1.705,0.316-2.043,0.947c-0.34,0.631-0.506,1.43-0.506,2.398V41.66c0,0.836,0.182,1.533,0.547,2.096
			c0.361,0.564,1.016,0.848,1.963,0.848c0.27,0,0.561-0.047,0.869-0.141c0.314-0.094,0.596-0.248,0.852-0.465
			c0.258-0.213,0.465-0.508,0.627-0.885c0.158-0.377,0.244-0.846,0.244-1.412v-1.41h4.129V42.064z"/>
		<path fill="#FFFFFF" d="M113.84,19.785h4.127v24.576h7.393v4.109h-11.52V19.785z"/>
		<path fill="#FFFFFF" d="M127.973,19.785h12.307v3.867h-8.18v8.424h7.127v3.867H132.1v8.418h8.18v4.109h-12.307V19.785z"/>
		<path fill="#FFFFFF" d="M158.076,28.047h-4.133v-0.93c0-0.939-0.221-1.75-0.666-2.436c-0.443-0.684-1.193-1.029-2.246-1.029
			c-0.57,0-1.035,0.109-1.398,0.324c-0.365,0.215-0.648,0.488-0.852,0.824c-0.199,0.338-0.344,0.725-0.424,1.172
			c-0.08,0.443-0.119,0.904-0.119,1.389c0,0.564,0.018,1.037,0.059,1.428s0.141,0.725,0.303,1.01c0.166,0.279,0.4,0.527,0.709,0.744
			c0.313,0.217,0.736,0.432,1.277,0.645l3.158,1.252c0.918,0.346,1.658,0.756,2.227,1.227c0.568,0.469,1.006,1.021,1.314,1.652
			c0.313,0.631,0.521,1.357,0.629,2.176s0.162,1.748,0.162,2.797c0,1.207-0.123,2.332-0.367,3.367
			c-0.242,1.033-0.641,1.916-1.193,2.658c-0.553,0.738-1.291,1.324-2.203,1.754c-0.92,0.428-2.041,0.641-3.363,0.641
			c-0.998,0-1.932-0.176-2.795-0.523s-1.605-0.822-2.225-1.43c-0.625-0.605-1.113-1.322-1.482-2.154
			c-0.361-0.834-0.543-1.732-0.543-2.699v-1.533h4.129v1.289c0,0.754,0.223,1.432,0.668,2.037s1.195,0.906,2.248,0.906
			c0.703,0,1.248-0.102,1.639-0.301c0.393-0.207,0.689-0.484,0.893-0.848s0.33-0.813,0.385-1.352
			c0.053-0.535,0.078-1.127,0.078-1.773c0-0.75-0.025-1.369-0.078-1.85c-0.055-0.486-0.17-0.875-0.348-1.166
			c-0.174-0.295-0.416-0.541-0.727-0.729c-0.309-0.188-0.723-0.391-1.232-0.604l-2.959-1.211c-1.781-0.721-2.973-1.684-3.584-2.877
			c-0.605-1.197-0.908-2.695-0.908-4.496c0-1.072,0.146-2.09,0.443-3.061c0.299-0.965,0.736-1.797,1.318-2.494
			c0.578-0.699,1.314-1.256,2.205-1.674s1.93-0.627,3.119-0.627c1.025,0,1.961,0.191,2.814,0.566c0.85,0.375,1.574,0.871,2.184,1.49
			c0.607,0.619,1.076,1.309,1.398,2.074c0.324,0.766,0.486,1.553,0.486,2.355V28.047z"/>
	</g>
</g>
</svg>
