<?xml version="1.0" encoding="utf-8"?>
<!-- Generator: Adobe Illustrator 16.0.0, SVG Export Plug-In . SVG Version: 6.00 Build 0)  -->
<!DOCTYPE svg PUBLIC "-//W3C//DTD SVG 1.1//EN" "http://www.w3.org/Graphics/SVG/1.1/DTD/svg11.dtd">
<svg version="1.1" id="Layer_1" xmlns="http://www.w3.org/2000/svg" xmlns:xlink="http://www.w3.org/1999/xlink" x="0px" y="0px"
	 width="36.777px" height="29.89px" viewBox="0 0 36.777 29.89" enable-background="new 0 0 36.777 29.89" xml:space="preserve">
<path fill="#1D9BD7" d="M36.777,3.539c-1.352,0.6-2.806,1.005-4.333,1.187c1.56-0.933,2.754-2.411,3.317-4.174
	c-1.457,0.864-3.072,1.495-4.792,1.831C29.594,0.918,27.632,0,25.46,0c-4.166,0-7.543,3.379-7.543,7.547
	c0,0.59,0.066,1.165,0.195,1.717C11.839,8.951,6.281,5.946,2.56,1.381c-0.651,1.115-1.022,2.41-1.022,3.795
	c0,2.617,1.332,4.926,3.356,6.281c-1.236-0.041-2.4-0.38-3.417-0.945c-0.002,0.031-0.002,0.063-0.002,0.096
	c0,3.654,2.603,6.705,6.054,7.397c-0.634,0.173-1.301,0.267-1.987,0.267c-0.487,0-0.958-0.049-1.42-0.138
	c0.958,2.999,3.747,5.18,7.047,5.241c-2.582,2.021-5.834,3.23-9.369,3.23c-0.608,0-1.211-0.037-1.799-0.107
	c3.339,2.142,7.304,3.392,11.566,3.392c13.879,0,21.467-11.499,21.467-21.469c0-0.326-0.006-0.651-0.021-0.976
	C34.486,6.381,35.765,5.051,36.777,3.539z"/>
</svg>
